<?xml version="1.0" encoding="UTF-8" standalone="no"?>
<!-- Created with Inkscape (http://www.inkscape.org/) -->

<svg
   xmlns:dc="http://purl.org/dc/elements/1.1/"
   xmlns:cc="http://creativecommons.org/ns#"
   xmlns:rdf="http://www.w3.org/1999/02/22-rdf-syntax-ns#"
   xmlns:svg="http://www.w3.org/2000/svg"
   xmlns="http://www.w3.org/2000/svg"
   xmlns:sodipodi="http://sodipodi.sourceforge.net/DTD/sodipodi-0.dtd"
   xmlns:inkscape="http://www.inkscape.org/namespaces/inkscape"
   width="208mm"
   height="104mm"
   viewBox="0 0 208 104"
   version="1.1"
   id="svg8"
   inkscape:version="0.92.1 r15371"
   sodipodi:docname="logo.svg">
  <defs
     id="defs2">
    <inkscape:perspective
       sodipodi:type="inkscape:persp3d"
       inkscape:vp_x="-111.71868 : 108.9442 : 1"
       inkscape:vp_y="0 : 999.99992 : 0"
       inkscape:vp_z="349.91305 : 108.9442 : 1"
       inkscape:persp3d-origin="101.99193 : 53.029628 : 1"
       id="perspective3712" />
  </defs>
  <sodipodi:namedview
     id="base"
     pagecolor="#ffffff"
     bordercolor="#666666"
     borderopacity="1.0"
     inkscape:pageopacity="0.0"
     inkscape:pageshadow="2"
     inkscape:zoom="0.49497475"
     inkscape:cx="505.18701"
     inkscape:cy="282.05514"
     inkscape:document-units="mm"
     inkscape:current-layer="layer2"
     showgrid="false"
     inkscape:object-paths="false"
     inkscape:snap-bbox="true"
     showguides="false"
     inkscape:window-width="1366"
     inkscape:window-height="705"
     inkscape:window-x="-8"
     inkscape:window-y="-8"
     inkscape:window-maximized="1"
     inkscape:snap-text-baseline="true" />
  <metadata
     id="metadata5">
    <rdf:RDF>
      <cc:Work
         rdf:about="">
        <dc:format>image/svg+xml</dc:format>
        <dc:type
           rdf:resource="http://purl.org/dc/dcmitype/StillImage" />
        <dc:title></dc:title>
      </cc:Work>
    </rdf:RDF>
  </metadata>
  <g
     inkscape:label="Capa 1"
     inkscape:groupmode="layer"
     id="layer1"
     transform="translate(0,-193)"
     style="display:inline">
    <flowRoot
       xml:space="preserve"
       id="flowRoot3688"
       style="font-style:normal;font-weight:normal;font-size:40px;line-height:1.25;font-family:sans-serif;letter-spacing:0px;word-spacing:0px;fill:#000000;fill-opacity:1;stroke:none"
       transform="scale(0.26458333)"><flowRegion
         id="flowRegion3690"><rect
           id="rect3692"
           width="101.01525"
           height="86.873116"
           x="159.6041"
           y="330.56006" /></flowRegion><flowPara
         id="flowPara3694"></flowPara></flowRoot>    <flowRoot
       xml:space="preserve"
       id="flowRoot3696"
       style="font-style:normal;font-weight:normal;font-size:40px;line-height:1.25;font-family:sans-serif;letter-spacing:0px;word-spacing:0px;fill:#000000;fill-opacity:1;stroke:none"
       transform="scale(0.26458333)"><flowRegion
         id="flowRegion3698"><rect
           id="rect3700"
           width="474.7717"
           height="92.934036"
           x="167.68532"
           y="328.53976" /></flowRegion><flowPara
         id="flowPara3702"></flowPara></flowRoot>    <g
       sodipodi:type="inkscape:box3d"
       id="g3714"
       inkscape:perspectiveID="#perspective3712"
       inkscape:corner0="0.87161748 : -0.028207504 : 0 : 1"
       inkscape:corner7="0.0042697665 : -0.050136103 : 0.72955109 : 1">
      <path
         sodipodi:type="inkscape:box3dside"
         id="path3716"
         style="fill:#353564;fill-rule:evenodd;stroke:none;stroke-linejoin:round"
         inkscape:box3dsidetype="6"
         d="m 2.4663029,233.00199 v 11.71639 L 99.91487,228.82619 v -8.43028 z"
         points="2.4663029,244.71838 99.91487,228.82619 99.91487,220.39591 2.4663029,233.00199 " />
      <path
         sodipodi:type="inkscape:box3dside"
         id="path3724"
         style="fill:#afafde;fill-rule:evenodd;stroke:none;stroke-linejoin:round"
         inkscape:box3dsidetype="13"
         d="M 2.4663029,244.71838 101.08331,293.65558 205.78502,249.22168 99.91487,228.82619 Z"
         points="101.08331,293.65558 205.78502,249.22168 99.91487,228.82619 2.4663029,244.71838 " />
      <path
         sodipodi:type="inkscape:box3dside"
         id="path3726"
         style="fill:#e9e9ff;fill-rule:evenodd;stroke:none;stroke-linejoin:round"
         inkscape:box3dsidetype="11"
         d="m 99.91487,220.39591 105.87015,16.17821 v 12.64756 L 99.91487,228.82619 Z"
         points="205.78502,236.57412 205.78502,249.22168 99.91487,228.82619 99.91487,220.39591 " />
      <path
         sodipodi:type="inkscape:box3dside"
         id="path3722"
         style="fill:#ff0000;fill-rule:evenodd;stroke:none;stroke-linejoin:round"
         inkscape:box3dsidetype="14"
         d="m 101.08331,271.82022 v 21.83536 l 104.70171,-44.4339 v -12.64756 z"
         points="101.08331,293.65558 205.78502,249.22168 205.78502,236.57412 101.08331,271.82022 " />
      <path
         sodipodi:type="inkscape:box3dside"
         id="path3720"
         style="fill:#008000;fill-rule:evenodd;stroke:none;stroke-linejoin:round"
         inkscape:box3dsidetype="3"
         d="m 2.4663029,233.00199 98.6170071,38.81823 v 21.83536 L 2.4663029,244.71838 Z"
         points="101.08331,271.82022 101.08331,293.65558 2.4663029,244.71838 2.4663029,233.00199 " />
    </g>
    <g
       id="g3814"
       style="fill:#ffff00"
       transform="translate(-71.093694,45.970359)">
      <path
         points="171.64237,225.37232 277.3145,175.55504 171.60816,151.27606 73.559951,168.61038 "
         d="M 73.559951,168.61038 171.64237,225.37232 277.3145,175.55504 171.60816,151.27606 Z"
         inkscape:box3dsidetype="5"
         style="fill:#ffff00;fill-rule:evenodd;stroke:none;stroke-linejoin:round"
         id="path3718"
         sodipodi:type="inkscape:box3dside" />
    </g>
  </g>
  <g
     inkscape:groupmode="layer"
     id="layer2"
     inkscape:label="Capa 2">
    <path
       style="font-style:normal;font-variant:normal;font-weight:normal;font-stretch:normal;font-size:280px;line-height:1.25;font-family:'Lucida Handwriting';-inkscape-font-specification:'Lucida Handwriting';letter-spacing:0px;word-spacing:0px;display:inline;fill:#000080;fill-opacity:1;stroke:none;stroke-width:0.50636071"
       d="M 429.81445 72.669922 C 427.09194 72.669922 422.2485 73.686485 415.28516 75.720703 C 416.5417 76.90055 417.16992 78.183138 417.16992 79.566406 C 417.16992 81.071728 416.72404 83.553548 415.83398 87.011719 L 400.52148 146.93945 C 398.74138 153.85579 397.85156 158.55341 397.85156 161.03516 C 397.85156 169.90435 406.20079 174.33984 422.90234 174.33984 C 433.5306 174.33984 443.60989 173.64889 453.13867 172.26562 C 462.71981 170.92304 468.6889 169.3347 471.04492 167.50391 C 473.40094 165.67311 475.44218 162.76441 477.16992 158.77734 C 463.45266 162.88646 450.12724 164.94141 437.19531 164.94141 C 422.69271 164.94141 415.44141 162.39804 415.44141 157.3125 C 415.44141 154.30186 416.43625 148.95302 418.42578 141.26367 L 432.0918 87.742188 C 433.81954 81.314059 434.68359 77.734272 434.68359 77.001953 C 434.68359 74.113364 433.06052 72.669922 429.81445 72.669922 z M 278.07227 78.345703 C 268.85762 80.624027 256.8679 81.761719 242.10352 81.761719 L 218.69922 81.761719 C 200.32228 81.761719 189.35513 82.474485 185.79492 83.898438 C 181.23995 85.769918 177.65295 89.961206 175.03516 96.470703 C 183.3074 91.669949 192.2868 89.269531 201.97266 89.269531 L 204.25 89.269531 L 196.55273 119.35547 L 193.96094 119.35547 C 189.92953 119.35547 186.97271 119.96502 185.08789 121.18555 C 183.25543 122.40608 180.89911 125.21351 178.01953 129.60742 C 182.99335 127.81731 188.12416 126.92187 193.41211 126.92188 L 194.58984 126.92188 L 189.32812 147.48828 C 187.65273 154.2012 186.81445 158.73796 186.81445 161.09766 C 186.81445 169.92616 195.37569 174.33984 212.49609 174.33984 C 216.89399 174.33984 223.17622 173.87129 231.34375 172.93555 C 239.51128 172.04049 245.24454 171.16687 248.54297 170.3125 C 253.98799 168.88855 257.88812 165.12414 260.24414 159.02148 C 250.03473 162.72376 238.2293 164.57617 224.82617 164.57617 C 211.31833 164.57617 204.56445 161.87 204.56445 156.45898 C 204.56445 153.73313 205.40078 149.11497 207.07617 142.60547 L 211.08203 126.92188 L 227.33789 126.92188 C 237.59966 126.92187 244.11771 126.39373 246.89258 125.33594 C 249.66744 124.27814 252.83628 121.16496 256.39648 115.99805 C 249.64257 118.23569 240.5839 119.35547 229.22266 119.35547 L 212.9668 119.35547 L 220.74219 89.269531 L 246.10742 89.269531 C 256.84039 89.269531 263.80433 88.719571 266.99805 87.621094 C 270.24412 86.522616 273.93614 83.431248 278.07227 78.345703 z M 360.22461 79.503906 C 338.44453 79.503906 319.07271 85.525789 302.10938 97.568359 C 285.1984 109.57025 276.74414 123.30166 276.74414 138.76172 C 276.74414 148.40391 280.67004 156.37752 288.52344 162.68359 C 296.42919 168.94898 306.40344 172.08203 318.44531 172.08203 C 330.33012 172.08203 341.87395 167.93242 353.07812 159.63281 C 346.63834 172.65181 340.54041 182.17207 334.78125 188.19336 C 346.09014 187.62378 353.05212 186.1188 355.66992 183.67773 C 358.28772 181.27736 362.13632 172.77365 367.21484 158.16797 L 379.62305 122.40625 C 372.1885 123.99294 364.59634 125.03132 356.84766 125.51953 L 347.03125 126.12891 C 337.03126 126.86122 330.64401 127.91947 327.86914 129.30273 C 325.09427 130.64532 322.71218 133.91936 320.72266 139.12695 C 330.46087 135.66878 343.41966 133.93945 359.59766 133.93945 L 358.96875 136.56445 C 356.87451 144.86406 352.68701 151.47563 346.4043 156.39844 C 340.12158 161.32124 332.76525 163.7832 324.33594 163.7832 C 314.96422 163.7832 307.4236 161.19816 301.7168 156.03125 C 296.06235 150.86434 293.23633 143.96883 293.23633 135.34375 C 293.23633 122.48749 298.83879 111.33916 310.04297 101.90039 C 321.24714 92.46162 334.46559 87.742187 349.70117 87.742188 C 361.06242 87.742187 368.57532 91.119443 372.24023 97.873047 C 373.18264 96.977991 373.91589 96.306903 374.43945 95.859375 C 379.46563 91.384096 381.97852 88.191462 381.97852 86.279297 C 381.97852 81.763333 374.72721 79.503906 360.22461 79.503906 z M 573.69531 79.503906 C 560.3969 79.503906 549.69135 83.715057 541.57617 92.136719 C 526.75943 92.665615 514.19303 97.222241 503.87891 105.80664 C 493.61714 114.39104 488.48633 124.62407 488.48633 136.50391 C 488.48633 147.448 492.98892 156.49971 501.99414 163.66016 C 511.05172 170.77992 522.51825 174.33984 536.39258 174.33984 C 555.65957 174.33984 573.22403 168.03403 589.08789 155.42188 C 604.95175 142.80972 612.88477 128.8341 612.88477 113.49609 C 612.88477 103.65048 609.19274 95.533929 601.81055 89.146484 C 594.42836 82.718356 585.05656 79.503906 573.69531 79.503906 z M 569.21875 89.634766 C 576.81036 89.634766 583.19762 92.239668 588.38086 97.447266 C 593.5641 102.65486 596.15625 109.08181 596.15625 116.73047 C 596.15625 129.87152 590.94618 141.44673 580.52734 151.45508 C 570.10851 161.46343 558.09302 166.4668 544.48047 166.4668 C 533.11922 166.4668 523.77515 163.29403 516.44531 156.94727 C 509.11548 150.55982 505.44922 142.46313 505.44922 132.6582 C 505.44922 123.87038 508.1464 116.4666 513.53906 110.44531 C 518.93173 104.42403 526.28806 100.53849 535.60742 98.789062 C 532.36135 104.52556 530.73828 110.01734 530.73828 115.26562 C 530.73828 119.29338 531.67964 122.10081 533.56445 123.6875 C 535.50162 125.27419 539.32445 126.47538 545.03125 127.28906 C 542.15167 123.302 540.71094 118.9479 540.71094 114.22852 C 540.71094 107.55628 543.53892 101.80042 549.19336 96.958984 C 554.8478 92.076861 561.52242 89.634766 569.21875 89.634766 z "
       transform="scale(0.26458333)"
       id="flowRoot3680-7" />
  </g>
</svg>
